<svg xmlns="http://www.w3.org/2000/svg" viewBox="0 0 1200 360" role="img" aria-labelledby="title desc"><title id="title">BackOfficeFleet logo</title><desc id="desc">Three-road mark with brown off-road path and a horizontal white path carried through forward-leaning BOF initials.</desc><g transform="translate(58.0 42.0) scale(0.88)"><path d="M6 185 C72 48 178 15 282 7 C170 50 111 106 66 205 Z" fill="#06183a"/><path d="M86 205 C130 94 196 37 296 8 C229 58 186 126 158 220 Z" fill="#0a2342"/><path d="M178 220 C205 126 245 58 308 12 C276 93 259 156 247 220 Z" fill="#ffffff"/><path d="M132 196 C170 101 221 47 290 15" fill="none" stroke="#ffffff" stroke-width="10" stroke-linecap="round" stroke-dasharray="18 22"/><path d="M0 246 L160 236 L152 250 L0 260 Z" fill="#0a2342" opacity="0.68"/><path d="M16 278 L145 266 L136 280 L16 292 Z" fill="#0a2342" opacity="0.48"/><path d="M34 308 L124 294 L114 308 L34 320 Z" fill="#0a2342" opacity="0.32"/></g><g transform="skewX(-9)"><text x="360.0" y="277.0" fill="#05070d" font-family="Arial Black, Inter, Segoe UI, sans-serif" font-size="205.0" font-weight="900" letter-spacing="-18.0">BOF</text></g><path d="M332.0 170.39999999999998 L1112.0 170.39999999999998 L1082.0 197.04999999999998 L310.0 197.04999999999998 Z" fill="#ffffff"/><text x="340.0" y="318.0" fill="#05070d" font-family="Inter, Segoe UI, Arial, sans-serif" font-size="50.0" font-weight="900" letter-spacing="15.0">BACKOFFICE</text><text x="854.0" y="318.0" fill="#05070d" font-family="Inter, Segoe UI, Arial, sans-serif" font-size="50.0" font-weight="900" letter-spacing="15.0">FLEET</text></svg>