<svg width="20" height="20" viewBox="0 0 20 20" fill="none" xmlns="http://www.w3.org/2000/svg">
<path d="M10.0077 12.2499C10.4218 12.25 10.7569 12.5861 10.7569 13.0002C10.7567 13.4142 10.4217 13.7504 10.0077 13.7505H10C9.58593 13.7505 9.24987 13.4142 9.24967 13.0002C9.24967 12.586 9.58581 12.2499 10 12.2499H10.0077Z" fill="#1570EF"/>
<path d="M10 6.24945C10.4141 6.24945 10.7501 6.58576 10.7503 6.99978V10C10.7501 10.414 10.4141 10.7492 10 10.7492C9.58593 10.7492 9.24987 10.414 9.24967 10V6.99978C9.24987 6.58576 9.58593 6.24945 10 6.24945Z" fill="#1570EF"/>
<path fill-rule="evenodd" clip-rule="evenodd" d="M10 2.5C11.989 2.5 13.8964 3.2907 15.3028 4.69716C16.7093 6.10361 17.5 8.01097 17.5 10C17.5 10.9847 17.3055 11.9597 16.9287 12.8695C16.5518 13.7794 15.9992 14.6064 15.3028 15.3028C14.6064 15.9992 13.7794 16.5518 12.8695 16.9287C11.9597 17.3055 10.9847 17.5 10 17.5C9.01528 17.5 8.04029 17.3055 7.13051 16.9287C6.22061 16.5518 5.39356 15.9992 4.69716 15.3028C4.00075 14.6064 3.44815 13.7794 3.07126 12.8695C2.69448 11.9597 2.5 10.9847 2.5 10C2.5 8.01097 3.2907 6.10361 4.69716 4.69716C6.10361 3.2907 8.01097 2.5 10 2.5ZM10 4.00066C8.40878 4.00066 6.88245 4.63212 5.75729 5.75729C4.63212 6.88245 4.00066 8.40878 4.00066 10C4.00066 10.7879 4.15509 11.5681 4.45657 12.296C4.75808 13.0239 5.20016 13.6856 5.75729 14.2427C6.31441 14.7998 6.97605 15.2419 7.70397 15.5434C8.43185 15.8449 9.21215 15.9993 10 15.9993C10.7879 15.9993 11.5681 15.8449 12.296 15.5434C13.0239 15.2419 13.6856 14.7998 14.2427 14.2427C14.7998 13.6856 15.2419 13.0239 15.5434 12.296C15.8449 11.5681 15.9993 10.7879 15.9993 10C15.9993 8.40878 15.3679 6.88245 14.2427 5.75729C13.1175 4.63212 11.5912 4.00066 10 4.00066Z" fill="#1570EF"/>
</svg>
