<svg width="16" height="16" viewBox="0 0 16 16" fill="none" xmlns="http://www.w3.org/2000/svg">
<path d="M8.00615 9.79991C8.33744 9.79999 8.60554 10.0689 8.60554 10.4002C8.60537 10.7313 8.33734 11.0004 8.00615 11.0004H8C7.66875 11.0004 7.3999 10.7314 7.39974 10.4002C7.39974 10.0688 7.66865 9.79991 8 9.79991H8.00615Z" fill="#0A0D12"/>
<path d="M8 4.99956C8.33125 4.99956 8.6001 5.26861 8.60026 5.59982V8C8.60011 8.33122 8.33126 8.59938 8 8.59938C7.66874 8.59938 7.39989 8.33122 7.39974 8V5.59982C7.3999 5.26861 7.66875 4.99956 8 4.99956Z" fill="#0A0D12"/>
<path fill-rule="evenodd" clip-rule="evenodd" d="M8 2C9.59122 2 11.1171 2.63256 12.2423 3.75773C13.3674 4.88289 14 6.40878 14 8C14 8.78777 13.8444 9.56777 13.543 10.2956C13.2415 11.0235 12.7994 11.6851 12.2423 12.2423C11.6851 12.7994 11.0235 13.2415 10.2956 13.543C9.56777 13.8444 8.78777 14 8 14C7.21223 14 6.43223 13.8444 5.70441 13.543C4.97649 13.2415 4.31485 12.7994 3.75773 12.2423C3.2006 11.6851 2.75852 11.0235 2.45701 10.2956C2.15559 9.56777 2 8.78777 2 8C2 6.40878 2.63256 4.88289 3.75773 3.75773C4.88289 2.63256 6.40878 2 8 2ZM8 3.20053C6.72702 3.20053 5.50596 3.7057 4.60583 4.60583C3.7057 5.50596 3.20053 6.72702 3.20053 8C3.20053 8.63028 3.32407 9.25452 3.56526 9.83682C3.80647 10.4192 4.16013 10.9485 4.60583 11.3942C5.05153 11.8399 5.58084 12.1935 6.16318 12.4347C6.74548 12.6759 7.36972 12.7995 8 12.7995C8.63028 12.7995 9.25452 12.6759 9.83682 12.4347C10.4192 12.1935 10.9485 11.8399 11.3942 11.3942C11.8399 10.9485 12.1935 10.4192 12.4347 9.83682C12.6759 9.25452 12.7995 8.63028 12.7995 8C12.7995 6.72702 12.2943 5.50596 11.3942 4.60583C10.494 3.7057 9.27298 3.20053 8 3.20053Z" fill="#0A0D12"/>
</svg>
