<svg width="20" height="20" viewBox="0 0 20 20" fill="none" xmlns="http://www.w3.org/2000/svg">
<path d="M10.0005 3.75C10.3377 3.75008 10.6693 3.83705 10.9632 4.00245C11.2574 4.16805 11.5042 4.40689 11.6793 4.69548L11.6812 4.69836L17.237 13.9736C17.4083 14.2705 17.499 14.6071 17.5 14.9498C17.501 15.2928 17.4116 15.63 17.2418 15.9279C17.0719 16.2259 16.8271 16.4749 16.5315 16.6488C16.236 16.8225 15.9 16.9157 15.5572 16.9195H4.4428C4.10004 16.9157 3.76399 16.8226 3.46852 16.6488C3.17294 16.4749 2.92805 16.2259 2.75821 15.9279C2.58838 15.63 2.49905 15.2928 2.50001 14.9498C2.50099 14.6071 2.59168 14.2705 2.76301 13.9736L8.31878 4.69836L8.3207 4.69548C8.49577 4.40688 8.74263 4.16805 9.03676 4.00245C9.33083 3.83697 9.66304 3.75 10.0005 3.75ZM10.0005 5.05735C9.88764 5.05735 9.7763 5.08649 9.67796 5.14182C9.57962 5.19719 9.49654 5.27667 9.43799 5.37315L3.89471 14.6264C3.83735 14.7257 3.80768 14.839 3.80736 14.9537C3.80704 15.0684 3.83695 15.1813 3.89375 15.281C3.95053 15.3805 4.03209 15.4638 4.13084 15.5219C4.2297 15.5801 4.3425 15.6109 4.4572 15.6121H15.5428C15.6575 15.6109 15.7703 15.5801 15.8692 15.5219C15.9679 15.4638 16.0495 15.3805 16.1063 15.281C16.163 15.1813 16.193 15.0684 16.1926 14.9537C16.1923 14.839 16.1617 14.7266 16.1043 14.6273L10.562 5.37315L10.5131 5.30404C10.4606 5.23844 10.3957 5.18328 10.322 5.14182C10.2238 5.08657 10.1132 5.05743 10.0005 5.05735ZM10.0062 12.9917C10.3671 12.9917 10.6597 13.2836 10.6599 13.6444C10.6599 14.0054 10.3672 14.2981 10.0062 14.2981H10.0005C9.63949 14.2981 9.3468 14.0054 9.3468 13.6444C9.34705 13.2836 9.63964 12.9917 10.0005 12.9917H10.0062ZM9.3468 11.0239V8.40252C9.34688 8.04159 9.63953 7.74884 10.0005 7.74884C10.3612 7.7491 10.6531 8.04174 10.6532 8.40252V11.0239C10.6531 11.3847 10.3612 11.6774 10.0005 11.6776C9.63955 11.6776 9.3469 11.3848 9.3468 11.0239Z" fill="#D92D20"/>
</svg>
