<svg width="20" height="20" viewBox="0 0 20 20" fill="none" xmlns="http://www.w3.org/2000/svg">
<rect width="20" height="20" rx="10" fill="#F04438"/>
<path d="M13.5283 5.52827C13.7886 5.26792 14.2113 5.26792 14.4716 5.52827C14.7319 5.78862 14.732 6.2113 14.4716 6.47163L10.9433 9.99995L14.4716 13.5283C14.7319 13.7886 14.732 14.2113 14.4716 14.4716C14.2113 14.732 13.7886 14.7319 13.5283 14.4716L9.99995 10.9433L6.47163 14.4716C6.2113 14.732 5.78862 14.7319 5.52827 14.4716C5.26792 14.2113 5.26792 13.7886 5.52827 13.5283L9.05659 9.99995L5.52827 6.47163C5.26792 6.21128 5.26792 5.78862 5.52827 5.52827C5.78862 5.26792 6.21128 5.26792 6.47163 5.52827L9.99995 9.05659L13.5283 5.52827Z" fill="white"/>
</svg>
