<svg width="20" height="20" viewBox="0 0 20 20" fill="none" xmlns="http://www.w3.org/2000/svg">
<path fill-rule="evenodd" clip-rule="evenodd" d="M12.2499 8.49938C13.5836 8.49938 14.8287 8.76825 15.7675 9.23762C16.6614 9.68459 17.4997 10.4415 17.5 11.4996V14.4998C17.4998 15.5575 16.6611 16.3137 15.7675 16.7607C14.8287 17.2302 13.5838 17.4989 12.2499 17.4989C10.916 17.4989 9.67108 17.2302 8.73224 16.7607C7.83864 16.3137 6.99997 15.5575 6.99978 14.4998V11.4996C7.00005 10.4415 7.8384 9.68459 8.73224 9.23762C9.67109 8.76825 10.9161 8.49938 12.2499 8.49938ZM15.7675 13.7616C14.8287 14.231 13.5837 14.4998 12.2499 14.4998C10.916 14.4998 9.67111 14.231 8.73224 13.7616C8.65385 13.7224 8.57745 13.6781 8.50044 13.6341V14.4998C8.50066 14.6838 8.66948 15.0522 9.40347 15.4193C10.0932 15.7643 11.0985 15.9994 12.2499 15.9994C13.4013 15.9994 14.4066 15.7643 15.0963 15.4193C15.8303 15.0522 15.9991 14.6838 15.9993 14.4998V13.6341C15.9223 13.6781 15.8459 13.7224 15.7675 13.7616ZM12.2499 10C11.0986 10 10.0931 10.2343 9.40347 10.579C8.66967 10.9459 8.50075 11.3151 8.50044 11.4996C8.50044 11.6839 8.66916 12.053 9.40347 12.4202C10.0931 12.765 11.0985 12.9992 12.2499 12.9992C13.4013 12.9992 14.4066 12.765 15.0963 12.4202C15.8306 12.053 15.9993 11.6839 15.9993 11.4996C15.999 11.3151 15.8301 10.9459 15.0963 10.579C14.4066 10.2343 13.4012 10 12.2499 10Z" fill="#1570EF"/>
<path fill-rule="evenodd" clip-rule="evenodd" d="M5.29259 2.83181C6.82029 2.3907 8.67993 2.3907 10.2076 2.83181C10.9741 3.05316 11.6444 3.38122 12.1378 3.80845C12.6309 4.23537 13.0002 4.81239 13.0002 5.50026C13.0002 6.18816 12.6309 6.76512 12.1378 7.19207C11.6444 7.61932 10.9741 7.94734 10.2076 8.16871C8.67991 8.60984 6.82031 8.60984 5.29259 8.16871C4.81867 8.03184 4.38194 7.85365 4.00066 7.63699V9.24971C4.00066 9.32718 4.02063 9.41122 4.16435 9.54413C4.33153 9.69854 4.61443 9.86686 5.05639 10.0649C5.4342 10.2341 5.60314 10.6779 5.4343 11.0558C5.265 11.4338 4.8214 11.603 4.44339 11.4337C4.29325 11.3664 4.14539 11.2936 4.00066 11.2184V13.0003C4.00072 13.0777 4.0207 13.1619 4.16435 13.2947C4.33159 13.4491 4.61443 13.6174 5.05639 13.8154C5.43436 13.9847 5.6035 14.4283 5.4343 14.8063C5.26496 15.1843 4.82136 15.3535 4.44339 15.1842C3.96515 14.97 3.49838 14.7212 3.14596 14.3955C2.77035 14.0482 2.50011 13.5884 2.5 13.0003V5.50026C2.50006 4.81239 2.86933 4.23537 3.36238 3.80845C3.85585 3.38122 4.52612 3.05316 5.29259 2.83181ZM9.79237 4.27205C8.5364 3.90934 6.96382 3.90934 5.70785 4.27205C5.08284 4.45259 4.62798 4.69686 4.34451 4.94218C4.06082 5.18781 4.00072 5.38425 4.00066 5.50026C4.00066 5.61624 4.06075 5.81261 4.34451 6.05834C4.62796 6.30367 5.0828 6.54791 5.70785 6.72847C6.96384 7.09119 8.53638 7.09119 9.79237 6.72847C10.4174 6.54791 10.8723 6.30367 11.1557 6.05834C11.4395 5.81261 11.4996 5.61624 11.4996 5.50026C11.4995 5.38425 11.4394 5.18781 11.1557 4.94218C10.8722 4.69686 10.4174 4.45259 9.79237 4.27205Z" fill="#1570EF"/>
</svg>
