<svg width="16" height="16" viewBox="0 0 16 16" fill="none" xmlns="http://www.w3.org/2000/svg">
<path fill-rule="evenodd" clip-rule="evenodd" d="M9.79991 6.7997C10.8669 6.7997 11.863 7.0148 12.614 7.3903C13.3291 7.74787 13.9998 8.35343 14 9.19987V11.6001C13.9998 12.4462 13.3289 13.0511 12.614 13.4088C11.863 13.7844 10.8671 13.9993 9.79991 13.9993C8.73276 13.9993 7.73686 13.7844 6.98579 13.4088C6.27091 13.0511 5.59998 12.4462 5.59982 11.6001V9.19987C5.60004 8.35343 6.27072 7.74787 6.98579 7.3903C7.73687 7.0148 8.73291 6.7997 9.79991 6.7997ZM12.614 11.0095C11.8629 11.385 10.867 11.6001 9.79991 11.6001C8.73283 11.6001 7.73689 11.385 6.98579 11.0095C6.92308 10.9781 6.86196 10.9427 6.80035 10.9075V11.6001C6.80053 11.7472 6.93559 12.042 7.52278 12.3357C8.07454 12.6116 8.87877 12.7997 9.79991 12.7997C10.7211 12.7997 11.5253 12.6116 12.077 12.3357C12.6642 12.042 12.7993 11.7472 12.7995 11.6001V10.9075C12.7379 10.9427 12.6767 10.9781 12.614 11.0095ZM9.79991 8.00023C8.87889 8.00023 8.07451 8.18762 7.52278 8.46339C6.93574 8.75691 6.8006 9.05231 6.80035 9.19987C6.80035 9.34729 6.93533 9.64259 7.52278 9.93636C8.07451 10.2122 8.8788 10.3995 9.79991 10.3995C10.721 10.3995 11.5253 10.2122 12.077 9.93636C12.6645 9.64259 12.7995 9.34729 12.7995 9.19987C12.7992 9.05231 12.6641 8.75691 12.077 8.46339C11.5253 8.18762 10.7209 8.00023 9.79991 8.00023Z" fill="#0A0D12"/>
<path fill-rule="evenodd" clip-rule="evenodd" d="M4.23407 2.26564C5.45623 1.91275 6.94394 1.91275 8.16611 2.26564C8.77928 2.44272 9.3155 2.70517 9.71027 3.04695C10.1047 3.38849 10.4001 3.85011 10.4002 4.4004C10.4002 4.95072 10.1047 5.41229 9.71027 5.75385C9.3155 6.09565 8.7793 6.35807 8.16611 6.53516C6.94393 6.88806 5.45625 6.88806 4.23407 6.53516C3.85494 6.42567 3.50555 6.28311 3.20053 6.10979V7.39996C3.20053 7.46194 3.21651 7.52917 3.33148 7.6355C3.46522 7.75903 3.69154 7.89369 4.04511 8.05208C4.34736 8.18745 4.48251 8.54251 4.34744 8.84481C4.212 9.14722 3.85712 9.28259 3.55471 9.14714C3.4346 9.09334 3.31631 9.03511 3.20053 8.97489V10.4004C3.20058 10.4623 3.21656 10.5297 3.33148 10.6359C3.46527 10.7595 3.69155 10.8941 4.04511 11.0525C4.34748 11.1879 4.4828 11.5429 4.34744 11.8453C4.21197 12.1476 3.85709 12.283 3.55471 12.1476C3.17212 11.9762 2.7987 11.7771 2.51677 11.5166C2.21628 11.2388 2.00009 10.871 2 10.4004V4.4004C2.00005 3.85011 2.29547 3.38849 2.68991 3.04695C3.08468 2.70517 3.62089 2.44272 4.23407 2.26564ZM7.83389 3.41783C6.82912 3.12767 5.57105 3.12767 4.56628 3.41783C4.06627 3.56226 3.70238 3.75768 3.47561 3.95394C3.24865 4.15045 3.20058 4.30759 3.20053 4.4004C3.20053 4.49319 3.2486 4.65029 3.47561 4.84686C3.70237 5.04314 4.06624 5.23853 4.56628 5.38297C5.57107 5.67315 6.8291 5.67315 7.83389 5.38297C8.33394 5.23853 8.6978 5.04314 8.92456 4.84686C9.15158 4.65029 9.19965 4.49319 9.19965 4.4004C9.1996 4.30759 9.15152 4.15045 8.92456 3.95394C8.69779 3.75768 8.33391 3.56226 7.83389 3.41783Z" fill="#0A0D12"/>
</svg>
