<svg width="16" height="16" viewBox="0 0 16 16" fill="none" xmlns="http://www.w3.org/2000/svg">
<path d="M3.20059 3.20053V7.39974H6.20029V3.20053H3.20059ZM7.4 7.39974C7.4 8.06245 6.86303 8.60026 6.20029 8.60026H3.20059C2.53784 8.60026 2 8.06245 2 7.39974V3.20053C2 2.53782 2.53784 2 3.20059 2H6.20029C6.86303 2 7.4 2.53782 7.4 3.20053V7.39974Z" fill="#0A0D12"/>
<path d="M9.80059 3.20053V5.00044H12.8003V3.20053H9.80059ZM14 5.00044C13.9998 5.66301 13.4629 6.20009 12.8003 6.20009H9.80059C9.13794 6.20009 8.60016 5.66301 8.6 5.00044V3.20053C8.6 2.53782 9.13784 2 9.80059 2H12.8003C13.463 2 14 2.53782 14 3.20053V5.00044Z" fill="#0A0D12"/>
<path d="M9.80059 8.60026V12.7995H12.8003V8.60026H9.80059ZM14 12.7995C14 13.4622 13.463 14 12.8003 14H9.80059C9.13784 14 8.6 13.4622 8.6 12.7995V8.60026C8.6 7.93755 9.13784 7.39974 9.80059 7.39974H12.8003C13.463 7.39974 14 7.93755 14 8.60026V12.7995Z" fill="#0A0D12"/>
<path d="M3.20059 11.0001V12.8001H6.20029V11.0001H3.20059ZM7.4 12.8001C7.39984 13.4626 6.86294 13.9997 6.20029 13.9997H3.20059C2.53794 13.9997 2.00016 13.4626 2 12.8001V11.0001C2 10.3374 2.53784 9.79962 3.20059 9.79962H6.20029C6.86303 9.79962 7.4 10.3374 7.4 11.0001V12.8001Z" fill="#0A0D12"/>
</svg>
