<svg width="16" height="16" viewBox="0 0 16 16" fill="none" xmlns="http://www.w3.org/2000/svg">
<path d="M10.2217 10.1816C10.5284 10.1816 10.7774 10.4262 10.7775 10.7273C10.7775 11.0286 10.5285 11.2731 10.2217 11.2731H5.77751C5.47068 11.2731 5.22168 11.0286 5.22168 10.7273C5.22183 10.4262 5.47077 10.1816 5.77751 10.1816H10.2217Z" fill="#0A0D12"/>
<path d="M10.2217 8.0004C10.5285 8.0004 10.7775 8.24487 10.7775 8.54611C10.7774 8.84722 10.5284 9.09182 10.2217 9.09182H5.77751C5.47077 9.09182 5.22183 8.84722 5.22168 8.54611C5.22168 8.24487 5.47068 8.0004 5.77751 8.0004H10.2217Z" fill="#0A0D12"/>
<path d="M6.88835 5.81836C7.19517 5.81836 7.44417 6.06283 7.44417 6.36407C7.44417 6.66531 7.19517 6.90978 6.88835 6.90978H5.77751C5.47068 6.90978 5.22168 6.66531 5.22168 6.36407C5.22168 6.06283 5.47068 5.81836 5.77751 5.81836H6.88835Z" fill="#0A0D12"/>
<path fill-rule="evenodd" clip-rule="evenodd" d="M9.77572 2.01119C9.88239 2.03211 9.98163 2.08322 10.0597 2.1598L12.8372 4.88754C12.9413 4.98971 12.9999 5.12819 13 5.27265V12.3637C13 12.7976 12.8242 13.2137 12.5117 13.5206C12.1992 13.8274 11.7753 14 11.3333 14H4.66667C4.22474 13.9999 3.80078 13.8274 3.48828 13.5206C3.17589 13.2138 3 12.7975 3 12.3637V3.63633C3.00015 3.20254 3.17585 2.78614 3.48828 2.47939C3.80076 2.17267 4.2248 2.00007 4.66667 2H9.66667L9.77572 2.01119ZM4.66667 3.09142C4.51949 3.09149 4.37852 3.14907 4.27441 3.25122C4.17036 3.35338 4.1118 3.49186 4.11165 3.63633V12.3637C4.11165 12.5083 4.17031 12.6473 4.27441 12.7496C4.37851 12.8516 4.51955 12.9093 4.66667 12.9094H11.3333C11.4806 12.9094 11.6222 12.8518 11.7264 12.7496C11.8305 12.6473 11.8892 12.5083 11.8892 12.3637V6.36407H10.2217C9.77975 6.364 9.35579 6.19149 9.04329 5.88468C8.73089 5.57788 8.55508 5.16157 8.55501 4.72774V3.09142H4.66667ZM9.66667 4.72774C9.66674 4.87224 9.72539 5.01064 9.82943 5.11286C9.93355 5.21508 10.0744 5.27258 10.2217 5.27265H11.6589L9.66667 3.31673V4.72774Z" fill="#0A0D12"/>
</svg>
