<svg width="20" height="20" viewBox="0 0 20 20" fill="none" xmlns="http://www.w3.org/2000/svg">
<path d="M12.7771 12.778C13.1605 12.778 13.4717 13.0894 13.4719 13.4728C13.4719 13.8563 13.1606 14.1676 12.7771 14.1676H7.22188C6.83835 14.1676 6.5271 13.8563 6.5271 13.4728C6.52729 13.0894 6.83847 12.778 7.22188 12.778H12.7771Z" fill="#D92D20"/>
<path d="M12.7771 10.0009C13.1606 10.0009 13.4719 10.3121 13.4719 10.6957C13.4717 11.079 13.1605 11.3905 12.7771 11.3905H7.22188C6.83847 11.3905 6.52729 11.079 6.5271 10.6957C6.5271 10.3121 6.83835 10.0009 7.22188 10.0009H12.7771Z" fill="#D92D20"/>
<path d="M8.61043 7.22278C8.99396 7.22278 9.30522 7.53403 9.30522 7.91756C9.30522 8.30109 8.99396 8.61235 8.61043 8.61235H7.22188C6.83835 8.61235 6.5271 8.30109 6.5271 7.91756C6.5271 7.53403 6.83835 7.22278 7.22188 7.22278H8.61043Z" fill="#D92D20"/>
<path fill-rule="evenodd" clip-rule="evenodd" d="M12.2196 2.37557C12.353 2.40221 12.477 2.46728 12.5747 2.56478L16.0465 6.03768C16.1766 6.16775 16.2498 6.34407 16.25 6.52799V15.5561C16.25 16.1086 16.0302 16.6384 15.6396 17.0291C15.249 17.4197 14.7191 17.6394 14.1667 17.6394H5.83333C5.28092 17.6394 4.75097 17.4197 4.36035 17.0291C3.96987 16.6384 3.75 16.1085 3.75 15.5561V4.44466C3.75018 3.89238 3.96981 3.36222 4.36035 2.97168C4.75096 2.58117 5.281 2.36142 5.83333 2.36133H12.0833L12.2196 2.37557ZM5.83333 3.7509C5.64936 3.75098 5.47315 3.8243 5.34302 3.95435C5.21295 4.08442 5.13975 4.26073 5.13957 4.44466V15.5561C5.13957 15.7402 5.21289 15.9172 5.34302 16.0474C5.47314 16.1774 5.64944 16.2508 5.83333 16.2509H14.1667C14.3508 16.2509 14.5278 16.1776 14.658 16.0474C14.7881 15.9172 14.8614 15.7402 14.8614 15.5561V7.91756H12.7771C12.2247 7.91747 11.6947 7.69783 11.3041 7.30721C10.9136 6.91661 10.6939 6.38656 10.6938 5.83423V3.7509H5.83333ZM12.0833 5.83423C12.0834 6.0182 12.1567 6.19441 12.2868 6.32454C12.4169 6.4547 12.593 6.5279 12.7771 6.52799H14.5736L12.0833 4.03776V5.83423Z" fill="#D92D20"/>
</svg>
