<svg width="66" height="66" viewBox="0 0 66 66" fill="none" xmlns="http://www.w3.org/2000/svg">
<rect x="5" y="5" width="56" height="56" rx="28" fill="#D1FADF"/>
<rect x="5" y="5" width="56" height="56" rx="28" stroke="#ECFDF3" stroke-width="10"/>
<path d="M44.6663 31.9262V32.9995C44.6649 35.5153 43.8503 37.9633 42.3439 39.9783C40.8375 41.9933 38.7202 43.4674 36.3076 44.1807C33.895 44.8941 31.3165 44.8084 28.9566 43.9365C26.5966 43.0647 24.5818 41.4533 23.2125 39.3428C21.8432 37.2322 21.1928 34.7356 21.3583 32.2252C21.5238 29.7148 22.4964 27.3252 24.131 25.4128C25.7656 23.5003 27.9746 22.1675 30.4286 21.613C32.8825 21.0586 35.45 21.3122 37.748 22.3362M44.6663 23.6662L32.9997 35.3445L29.4997 31.8445" stroke="#039855" stroke-width="2.33333" stroke-linecap="round" stroke-linejoin="round"/>
</svg>
