<svg width="16" height="16" viewBox="0 0 16 16" fill="none" xmlns="http://www.w3.org/2000/svg">
<path fill-rule="evenodd" clip-rule="evenodd" d="M13.0545 2.33398C13.4024 2.33415 13.6847 2.61626 13.6847 2.9642V4.3366C13.6845 4.83865 13.4845 5.32073 13.1295 5.67568L10.5253 8.27982V12.4405C10.5252 12.7115 10.3521 12.9525 10.095 13.0383L6.30449 14.3015C6.1124 14.3655 5.90056 14.3338 5.73628 14.2155C5.57204 14.0971 5.47449 13.9062 5.47438 13.7037V8.57781L2.80824 5.64515C2.49155 5.29672 2.31605 4.84168 2.31592 4.37084V2.9642C2.31592 2.61616 2.59809 2.33398 2.94613 2.33398H13.0545ZM3.57634 4.37084C3.57644 4.52815 3.63531 4.68008 3.74107 4.79653L6.57101 7.91058C6.6763 8.02654 6.73481 8.17778 6.73481 8.33442V12.8292L9.26491 11.9861V8.01793C9.265 7.85098 9.33199 7.69089 9.45 7.5728L12.2383 4.7845C12.3568 4.66593 12.4241 4.50425 12.4243 4.3366V3.59441H3.57634V4.37084Z" fill="#01A2AD"/>
</svg>
