<svg width="16" height="16" viewBox="0 0 16 16" fill="none" xmlns="http://www.w3.org/2000/svg">
<path d="M8 8.59968C8.72309 8.59975 9.41649 8.88975 9.92783 9.4053C10.4392 9.921 10.7268 10.6208 10.7268 11.3501V12.4498C10.7268 12.7535 10.4823 13 10.1811 13C9.87999 12.9999 9.63622 12.7534 9.63622 12.4498V11.3501C9.63622 10.9126 9.46354 10.4929 9.15686 10.1835C8.85007 9.87418 8.43386 9.70023 8 9.70016H4.72756C4.29361 9.70016 3.87756 9.87412 3.57071 10.1835C3.26386 10.493 3.09134 10.9125 3.09134 11.3501V12.4498C3.09134 12.7535 2.84689 13 2.54567 13C2.24445 13 2 12.7535 2 12.4498V11.3501C2 10.6208 2.28752 9.921 2.79893 9.4053C3.31035 8.8896 4.00431 8.59968 4.72756 8.59968H8Z" fill="#0A0D12"/>
<path d="M11.9547 8.6891C12.5396 8.84148 13.0579 9.1857 13.428 9.66713C13.7979 10.1485 13.9995 10.7402 14 11.3493V12.4498C13.9999 12.7534 13.7554 12.9999 13.4543 13C13.1532 13 12.9088 12.7534 12.9087 12.4498V11.3501C12.9083 10.9847 12.7879 10.6294 12.5659 10.3406C12.3438 10.0518 12.0324 9.84554 11.6815 9.75414C11.39 9.67811 11.2148 9.37782 11.29 9.08386C11.3654 8.78991 11.6632 8.61319 11.9547 8.6891Z" fill="#0A0D12"/>
<path fill-rule="evenodd" clip-rule="evenodd" d="M6.36378 2C7.86976 2.00015 9.09055 3.23178 9.09055 4.7504C9.0904 6.2689 7.86967 7.49985 6.36378 7.5C4.85777 7.5 3.63636 6.26899 3.63622 4.7504C3.63622 3.23169 4.85768 2 6.36378 2ZM6.36378 3.10048C5.46012 3.10048 4.72756 3.83918 4.72756 4.7504C4.72771 5.6615 5.46021 6.40032 6.36378 6.40032C7.26723 6.40018 7.99986 5.66142 8 4.7504C8 3.83927 7.26732 3.10063 6.36378 3.10048Z" fill="#0A0D12"/>
<path d="M10.3185 2.08781C10.9031 2.24063 11.4213 2.58512 11.7909 3.06665C12.1605 3.54828 12.3613 4.14062 12.3614 4.7496C12.3614 5.35868 12.1606 5.95081 11.7909 6.43255C11.4213 6.9143 10.9033 7.2585 10.3185 7.41138C10.027 7.48749 9.72939 7.31137 9.6538 7.01743C9.5784 6.7235 9.75379 6.42335 10.0453 6.34715C10.3959 6.25543 10.7063 6.04865 10.9281 5.75985C11.1498 5.47082 11.2708 5.11501 11.2708 4.7496C11.2707 4.38429 11.1498 4.02907 10.9281 3.74015C10.7063 3.45133 10.3959 3.24457 10.0453 3.15285C9.75382 3.07662 9.57839 2.77648 9.6538 2.48257C9.72948 2.18884 10.0271 2.01184 10.3185 2.08781Z" fill="#0A0D12"/>
</svg>
