<svg width="20" height="20" viewBox="0 0 20 20" fill="none" xmlns="http://www.w3.org/2000/svg">
<path d="M10 10.7377C10.9039 10.7378 11.7706 11.0973 12.4098 11.7364C13.0491 12.3757 13.4085 13.2431 13.4085 14.1472V15.5104C13.4085 15.8869 13.1029 16.1925 12.7264 16.1925C12.35 16.1923 12.0453 15.8868 12.0453 15.5104V14.1472C12.0453 13.6049 11.8294 13.0846 11.4461 12.7011C11.0626 12.3176 10.5423 12.102 10 12.1019H5.90945C5.36701 12.1019 4.84695 12.3176 4.46338 12.7011C4.07982 13.0847 3.86418 13.6047 3.86418 14.1472V15.5104C3.86418 15.8869 3.55861 16.1925 3.18209 16.1925C2.80557 16.1925 2.5 15.8869 2.5 15.5104V14.1472C2.5 13.2431 2.8594 12.3757 3.49867 11.7364C4.13794 11.0971 5.00539 10.7377 5.90945 10.7377H10Z" fill="#039855"/>
<path d="M14.9434 10.8486C15.6745 11.0375 16.3223 11.4642 16.785 12.061C17.2474 12.6577 17.4993 13.3912 17.5 14.1462V15.5104C17.4999 15.8867 17.1943 16.1924 16.8179 16.1925C16.4415 16.1925 16.136 15.8868 16.1358 15.5104V14.1472C16.1354 13.6943 15.9848 13.2539 15.7074 12.8959C15.4298 12.5378 15.0405 12.2821 14.6019 12.1688C14.2375 12.0746 14.0185 11.7023 14.1125 11.3379C14.2068 10.9735 14.5789 10.7545 14.9434 10.8486Z" fill="#039855"/>
<path fill-rule="evenodd" clip-rule="evenodd" d="M7.95473 2.55664C9.8372 2.55682 11.3632 4.08358 11.3632 5.96609C11.363 7.84845 9.83709 9.37437 7.95473 9.37455C6.07222 9.37455 4.54545 7.84856 4.54527 5.96609C4.54527 4.08347 6.07211 2.55664 7.95473 2.55664ZM7.95473 3.92082C6.82515 3.92082 5.90945 4.83652 5.90945 5.96609C5.90963 7.09551 6.82527 8.01137 7.95473 8.01137C9.08404 8.01119 9.99982 7.0954 10 5.96609C10 4.83663 9.08415 3.921 7.95473 3.92082Z" fill="#039855"/>
<path d="M12.8981 2.6655C13.6289 2.85494 14.2766 3.28197 14.7387 3.87888C15.2007 4.47592 15.4516 5.2102 15.4517 5.9651C15.4517 6.72013 15.2007 7.45414 14.7387 8.05131C14.2766 8.6485 13.6291 9.07518 12.8981 9.2647C12.5337 9.35905 12.1617 9.14072 12.0672 8.77635C11.973 8.41199 12.1922 8.03991 12.5566 7.94546C12.9949 7.83175 13.3829 7.57543 13.6601 7.21743C13.9373 6.85914 14.0885 6.41807 14.0885 5.9651C14.0884 5.51225 13.9373 5.07192 13.6601 4.71376C13.3829 4.35574 12.9949 4.09944 12.5566 3.98574C12.1923 3.89124 11.973 3.51919 12.0672 3.15484C12.1619 2.79073 12.5339 2.57131 12.8981 2.6655Z" fill="#039855"/>
</svg>
