<svg width="14" height="12" viewBox="0 0 14 12" fill="none" xmlns="http://www.w3.org/2000/svg">
<path d="M6.625 0C7.14431 0 7.64252 0.206085 8.00977 0.573242C8.37684 0.940408 8.58292 1.43882 8.58301 1.95801V3.29199C8.58265 3.63687 8.30297 3.91699 7.95801 3.91699C7.6132 3.91682 7.33336 3.63676 7.33301 3.29199V1.95801C7.33292 1.77034 7.25863 1.58978 7.12598 1.45703C6.99315 1.32429 6.81279 1.25 6.625 1.25H1.95801C1.77026 1.25009 1.58979 1.32427 1.45703 1.45703C1.32438 1.58978 1.25009 1.77034 1.25 1.95801V9.95801C1.25009 10.1456 1.32448 10.3263 1.45703 10.459C1.58978 10.5916 1.77034 10.6669 1.95801 10.667H6.625C6.81278 10.667 6.99315 10.5917 7.12598 10.459C7.25863 10.3262 7.33292 10.1457 7.33301 9.95801V8.625C7.33301 8.27993 7.61298 8.00018 7.95801 8C8.30319 8 8.58301 8.27982 8.58301 8.625V9.95801C8.58292 10.4772 8.37684 10.9756 8.00977 11.3428C7.64252 11.7099 7.1443 11.917 6.625 11.917H1.95801C1.43882 11.9169 0.940408 11.7099 0.573242 11.3428C0.206266 10.9756 8.88493e-05 10.4771 0 9.95801V1.95801C8.61865e-05 1.43882 0.206165 0.940408 0.573242 0.573242C0.940424 0.20606 1.43874 8.62144e-05 1.95801 0H6.625Z" fill="#0A0D12"/>
<path d="M10.1826 3.51562C10.4267 3.27156 10.8233 3.27156 11.0674 3.51562L13.0674 5.51562C13.0943 5.54251 13.1176 5.57198 13.1387 5.60254C13.1457 5.6127 13.1518 5.62331 13.1582 5.63379C13.1707 5.65436 13.1815 5.67556 13.1914 5.69727C13.1977 5.71088 13.2038 5.72434 13.209 5.73828C13.22 5.76771 13.2299 5.79745 13.2363 5.82812C13.2391 5.84132 13.2393 5.85484 13.2412 5.86816C13.2444 5.89056 13.2473 5.91287 13.248 5.93555C13.2487 5.9545 13.2481 5.97324 13.2471 5.99219C13.2461 6.0095 13.2446 6.02668 13.2422 6.04395C13.2397 6.06172 13.2364 6.07913 13.2324 6.09668C13.2286 6.11353 13.2231 6.12985 13.2178 6.14648C13.2088 6.17482 13.1986 6.20243 13.1855 6.22949C13.1758 6.24961 13.166 6.26936 13.1543 6.28809C13.1458 6.30171 13.1356 6.31407 13.126 6.32715C13.113 6.34481 13.0996 6.36184 13.085 6.37793C13.0787 6.38482 13.0741 6.39372 13.0674 6.40039L11.0674 8.40039C10.8233 8.64425 10.4266 8.6444 10.1826 8.40039C9.93884 8.15637 9.93883 7.75964 10.1826 7.51562L11.1152 6.58301H4.625C4.27982 6.58301 4 6.30319 4 5.95801C4.00001 5.61284 4.27983 5.33301 4.625 5.33301H11.1152L10.1826 4.40039C9.93855 4.15631 9.93854 3.7597 10.1826 3.51562Z" fill="#0A0D12"/>
</svg>
