<svg width="12" height="9" viewBox="0 0 12 9" fill="none" xmlns="http://www.w3.org/2000/svg">
<path fill-rule="evenodd" clip-rule="evenodd" d="M6.00003 2.40094C6.47697 2.40097 6.93483 2.59038 7.27215 2.92755C7.60933 3.26483 7.79956 3.72275 7.79964 4.19967C7.79956 4.67668 7.60945 5.13448 7.27215 5.47178C6.93481 5.80907 6.47707 5.99924 6.00003 5.99927C5.52312 5.99919 5.0652 5.80896 4.72791 5.47178C4.39079 5.13451 4.20139 4.67654 4.20131 4.19967C4.20138 3.72269 4.39066 3.26484 4.72791 2.92755C5.06522 2.59024 5.52302 2.40102 6.00003 2.40094ZM6.00003 3.59833C5.84057 3.59841 5.68729 3.6614 5.57453 3.77416C5.46182 3.88692 5.39878 4.04024 5.3987 4.19967C5.39878 4.35899 5.46195 4.51244 5.57453 4.62517C5.68727 4.7378 5.84067 4.8018 6.00003 4.80188C6.15952 4.80185 6.31274 4.73792 6.42554 4.62517C6.5383 4.51241 6.60216 4.35913 6.60224 4.19967C6.60217 4.0403 6.53817 3.8869 6.42554 3.77416C6.31276 3.66154 6.15942 3.59836 6.00003 3.59833Z" fill="#01A2AD"/>
<path fill-rule="evenodd" clip-rule="evenodd" d="M6.00003 0C8.43323 8.90554e-05 10.4029 1.37198 11.9149 3.89197C12.0284 4.08137 12.0284 4.31796 11.9149 4.50737C10.4029 7.02735 8.43323 8.39924 6.00003 8.39933C3.56676 8.39933 1.59719 7.02736 0.0851584 4.50737C-0.0283861 4.31791 -0.0283862 4.08142 0.0851584 3.89197C1.59719 1.37197 3.56676 0 6.00003 0ZM6.00003 1.19739C4.19955 1.19739 2.6331 2.1341 1.30453 4.19967C2.6331 6.26523 4.19955 7.20194 6.00003 7.20194C7.80033 7.20186 9.36618 6.26493 10.6947 4.19967C9.36618 2.1344 7.80033 1.19747 6.00003 1.19739Z" fill="#01A2AD"/>
</svg>
