<svg width="12" height="14" viewBox="0 0 12 14" fill="none" xmlns="http://www.w3.org/2000/svg">
<path d="M9.33203 8.66699C9.6993 8.66699 9.99707 8.96476 9.99707 9.33203V10.667H11.332C11.6993 10.667 11.9971 10.9648 11.9971 11.332C11.9969 11.6991 11.6992 11.9971 11.332 11.9971H9.99707V13.332C9.99689 13.6991 9.69919 13.9971 9.33203 13.9971C8.96487 13.9971 8.66717 13.6991 8.66699 13.332V11.9971H7.33203C6.96487 11.9971 6.66717 11.6991 6.66699 11.332C6.66699 10.9648 6.96476 10.667 7.33203 10.667H8.66699V9.33203C8.66699 8.96476 8.96476 8.66699 9.33203 8.66699Z" fill="white"/>
<path d="M5.99805 8C6.36532 8 6.66309 8.29777 6.66309 8.66504C6.66309 9.03231 6.36532 9.33008 5.99805 9.33008H3.33203C2.80116 9.33008 2.2914 9.54063 1.91602 9.91602C1.54063 10.2914 1.33008 10.8012 1.33008 11.332V12.665C1.33008 13.0323 1.03231 13.3301 0.665039 13.3301C0.29777 13.3301 0 13.0323 0 12.665V11.332C0 10.4484 0.350777 9.60039 0.975586 8.97559C1.60039 8.35078 2.44842 8 3.33203 8H5.99805Z" fill="white"/>
<path fill-rule="evenodd" clip-rule="evenodd" d="M4.66504 0C5.54846 8.61675e-05 6.39579 0.350956 7.02051 0.975586C7.64532 1.60039 7.99609 2.44842 7.99609 3.33203C7.99601 4.21553 7.64524 5.06277 7.02051 5.6875C6.39578 6.31223 5.54853 6.663 4.66504 6.66309C3.78143 6.66309 2.9334 6.31231 2.30859 5.6875C1.68396 5.06278 1.33309 4.21545 1.33301 3.33203C1.33301 2.44842 1.68378 1.60039 2.30859 0.975586C2.9334 0.350777 3.78143 0 4.66504 0ZM4.66504 1.33008C4.13416 1.33008 3.62441 1.54063 3.24902 1.91602C2.87364 2.2914 2.66309 2.80116 2.66309 3.33203C2.66317 3.86271 2.87382 4.37178 3.24902 4.74707C3.62441 5.12246 4.13416 5.33301 4.66504 5.33301C5.1958 5.33292 5.70477 5.12238 6.08008 4.74707C6.45539 4.37176 6.66593 3.86279 6.66602 3.33203C6.66602 2.80116 6.45546 2.2914 6.08008 1.91602C5.70479 1.54081 5.19572 1.33016 4.66504 1.33008Z" fill="white"/>
</svg>
