<svg width="16" height="16" viewBox="0 0 16 16" fill="none" xmlns="http://www.w3.org/2000/svg">
<g clip-path="url(#clip0_4161_132)">
<path fill-rule="evenodd" clip-rule="evenodd" d="M7.99954 5.33301C9.4721 5.33324 10.6665 6.52738 10.6665 8C10.6665 9.47262 9.4721 10.6668 7.99954 10.667C6.52678 10.667 5.33255 9.47276 5.33255 8C5.33255 6.52724 6.52678 5.33301 7.99954 5.33301ZM7.99954 6.66699C7.26316 6.66699 6.66653 7.26362 6.66653 8C6.66653 8.73638 7.26316 9.33301 7.99954 9.33301C8.73572 9.33278 9.33255 8.73624 9.33255 8C9.33255 7.26376 8.73572 6.66722 7.99954 6.66699Z" fill="#0A0D12"/>
<path fill-rule="evenodd" clip-rule="evenodd" d="M8.14505 0.666016C8.67525 0.666016 9.18408 0.877187 9.55911 1.25195C9.93403 1.62687 10.1449 2.13582 10.145 2.66602V2.78613L10.1509 2.87305C10.1624 2.9591 10.1912 3.04248 10.2349 3.11816C10.2787 3.19388 10.3369 3.2605 10.4058 3.31348L10.479 3.3623L10.48 3.36328L10.7652 3.5293L10.8433 3.56738C10.9238 3.60076 11.0105 3.61809 11.0982 3.61816C11.2152 3.61816 11.3308 3.58781 11.4322 3.5293L11.4517 3.51855L11.5513 3.46484C12.0061 3.20908 12.5437 3.1405 13.0484 3.27539C13.5599 3.41222 13.9967 3.74696 14.2622 4.20508L14.4087 4.45898L14.4097 4.45996C14.6743 4.9187 14.7456 5.46397 14.6089 5.97559C14.4729 6.48425 14.1411 6.91758 13.687 7.18359L13.688 7.18457L13.5884 7.24512L13.5786 7.25C13.477 7.30867 13.3921 7.39342 13.3335 7.49512C13.2751 7.59679 13.2453 7.71281 13.2456 7.83008V8.16895C13.2452 8.28627 13.2751 8.40215 13.3335 8.50391C13.3914 8.60468 13.4754 8.68841 13.5757 8.74707L13.6587 8.79102C13.6655 8.79461 13.6726 8.7989 13.6792 8.80273C14.1375 9.06819 14.472 9.50501 14.6089 10.0166C14.7458 10.5284 14.6743 11.0743 14.4097 11.5332L14.2661 11.7871L14.2622 11.7939C13.9967 12.2523 13.5601 12.5867 13.0484 12.7236C12.5434 12.8586 12.0063 12.7893 11.5513 12.5332L11.4517 12.4814C11.4453 12.478 11.4384 12.4743 11.4322 12.4707C11.3309 12.4123 11.2151 12.3809 11.0982 12.3809C10.9813 12.381 10.8663 12.4123 10.7652 12.4707L10.48 12.6357L10.479 12.6367C10.3778 12.6951 10.2934 12.7797 10.2349 12.8809C10.1764 12.982 10.1452 13.0971 10.145 13.2139V13.333C10.145 13.8634 9.93412 14.372 9.55911 14.7471C9.18405 15.1221 8.67544 15.333 8.14505 15.333H7.85208C7.32174 15.333 6.81305 15.1221 6.43802 14.7471C6.06309 14.372 5.85208 13.8633 5.85208 13.333V13.2139L5.84622 13.127C5.83475 13.0406 5.80612 12.9568 5.76223 12.8809C5.70374 12.7798 5.61924 12.6951 5.51809 12.6367L5.51712 12.6357L5.23196 12.4707L5.15384 12.4316C5.07338 12.3983 4.98659 12.3809 4.89895 12.3809C4.78199 12.3809 4.66627 12.4122 4.56497 12.4707C4.55862 12.4744 4.55191 12.478 4.54544 12.4814L4.44583 12.5342L4.44485 12.5332C3.98997 12.7889 3.45345 12.8586 2.94876 12.7236C2.43712 12.5867 2.00037 12.2523 1.73489 11.7939L1.58841 11.54L1.58743 11.5391C1.32305 11.0803 1.25142 10.535 1.38821 10.0234C1.52427 9.51496 1.85518 9.08041 2.30911 8.81445L2.40872 8.75488L2.41848 8.74902C2.5202 8.69029 2.60507 8.60574 2.6636 8.50391C2.72203 8.40212 2.75196 8.28631 2.75149 8.16895V7.83008C2.75068 7.71395 2.72002 7.59942 2.66165 7.49902C2.60318 7.39867 2.51908 7.31491 2.41848 7.25684C2.40629 7.24978 2.39408 7.24219 2.38235 7.23438L2.28177 7.16797V7.16602C1.84251 6.8987 1.52133 6.47341 1.38821 5.97559C1.25158 5.46399 1.32289 4.91868 1.58743 4.45996L1.58841 4.45898L1.73489 4.20605C2.00044 3.74789 2.43718 3.41224 2.94876 3.27539C3.45315 3.14052 3.99014 3.20949 4.44485 3.46484L4.54544 3.51855L4.56497 3.5293C4.66628 3.58779 4.78198 3.61814 4.89895 3.61816C5.01581 3.6181 5.13075 3.58771 5.23196 3.5293L5.51712 3.36328L5.51809 3.3623C5.61932 3.30385 5.70374 3.21937 5.76223 3.11816C5.80592 3.04245 5.83475 2.95915 5.84622 2.87305L5.85208 2.78613V2.66602C5.85225 2.13582 6.0631 1.62687 6.43802 1.25195C6.81302 0.877133 7.32186 0.666052 7.85208 0.666016H8.14505ZM7.85208 2C7.67536 2.00004 7.50538 2.07038 7.3804 2.19531C7.25568 2.32016 7.18526 2.48955 7.18509 2.66602V2.78711C7.18471 3.13773 7.09196 3.48256 6.91653 3.78613C6.74135 4.08908 6.48894 4.33939 6.18606 4.51465L6.18704 4.51562L5.89993 4.68262L5.89895 4.68359C5.59503 4.85907 5.24989 4.9511 4.89895 4.95117C4.5553 4.95115 4.21776 4.86177 3.91848 4.69336L3.8179 4.6416C3.81148 4.63817 3.80467 4.63449 3.79837 4.63086C3.64551 4.54282 3.46391 4.51795 3.29348 4.56348C3.12297 4.60908 2.97771 4.72132 2.88919 4.87402L2.74173 5.125L2.7427 5.12598C2.65452 5.27885 2.6308 5.46132 2.6763 5.63184C2.71054 5.75958 2.78163 5.87379 2.87942 5.95996L2.98587 6.03613L3.022 6.05859L3.11966 6.12305C3.40637 6.29634 3.64532 6.53916 3.81399 6.8291C3.98936 7.13073 4.0833 7.47337 4.08548 7.82227V8.16406L4.08157 8.2959C4.0625 8.60229 3.9724 8.90077 3.81888 9.16797C3.6451 9.47034 3.39522 9.72149 3.09427 9.89746L2.99466 9.95801L2.98587 9.96289C2.83313 10.0514 2.72197 10.1977 2.6763 10.3682C2.6308 10.5385 2.65471 10.7202 2.7427 10.873L2.88919 11.126C2.9777 11.2785 3.12315 11.3899 3.29348 11.4355C3.46392 11.4811 3.6455 11.4572 3.79837 11.3691L3.8179 11.3584L3.91848 11.3047C4.21762 11.1365 4.55552 11.0479 4.89895 11.0479C5.20595 11.0479 5.5084 11.1187 5.78274 11.2539L5.89895 11.3154L5.89993 11.3164L6.18509 11.4824L6.29641 11.5518C6.55054 11.7216 6.76294 11.9483 6.91653 12.2139C7.09186 12.5173 7.1846 12.8615 7.18509 13.2119V13.333C7.18509 13.5097 7.25552 13.6797 7.3804 13.8047C7.50538 13.9296 7.67536 14 7.85208 14H8.14505C8.32181 14 8.49171 13.9297 8.61673 13.8047C8.74169 13.6797 8.81204 13.5098 8.81204 13.333V13.2119C8.81253 12.8615 8.90527 12.5173 9.08059 12.2139C9.25611 11.9103 9.50837 11.6577 9.81204 11.4824L10.0972 11.3164L10.0982 11.3154C10.402 11.14 10.7473 11.0479 11.0982 11.0479C11.4413 11.0479 11.7787 11.1368 12.0777 11.3047L12.1792 11.3584L12.1988 11.3691C12.3516 11.4572 12.5332 11.4811 12.7036 11.4355C12.8741 11.39 13.0194 11.2785 13.1079 11.126L13.2515 10.8721L13.2544 10.8662L13.3081 10.7471C13.3499 10.6235 13.355 10.4892 13.3208 10.3613C13.2752 10.191 13.1638 10.0455 13.0113 9.95703L12.9312 9.91504C12.9247 9.91155 12.918 9.907 12.9116 9.90332C12.6067 9.72713 12.3537 9.47332 12.1783 9.16797C12.0028 8.8626 11.9103 8.51623 11.9116 8.16406V7.83301C11.9108 7.48162 12.0031 7.13575 12.1783 6.83105C12.3538 6.52576 12.6067 6.27182 12.9116 6.0957L13.0025 6.04102L13.0113 6.03613C13.1639 5.94767 13.2752 5.80222 13.3208 5.63184C13.3663 5.4613 13.3426 5.27887 13.2544 5.12598L13.1079 4.87402C13.0194 4.72137 12.8741 4.60907 12.7036 4.56348C12.5332 4.518 12.3516 4.54276 12.1988 4.63086C12.1924 4.63454 12.1857 4.63814 12.1792 4.6416L12.0786 4.69434L12.0777 4.69336C11.7785 4.86152 11.4416 4.95117 11.0982 4.95117C10.7473 4.95108 10.4021 4.85904 10.0982 4.68359L10.0972 4.68262L9.81009 4.51562C9.50763 4.34039 9.2556 4.08877 9.08059 3.78613C8.90521 3.48259 8.81241 3.13769 8.81204 2.78711V2.66602C8.81186 2.48955 8.74145 2.32016 8.61673 2.19531C8.49172 2.07044 8.32175 2 8.14505 2H7.85208Z" fill="#0A0D12"/>
</g>
<defs>
<clipPath id="clip0_4161_132">
<rect width="16" height="16" fill="white"/>
</clipPath>
</defs>
</svg>
