<svg width="20" height="20" viewBox="0 0 20 20" fill="none" xmlns="http://www.w3.org/2000/svg">
<path fill-rule="evenodd" clip-rule="evenodd" d="M10.7495 4C11.1636 4 11.4988 4.33552 11.499 4.74951H14.4995C14.7627 4.74951 15.0072 4.88782 15.1428 5.11328L17.3926 8.86328C17.4624 8.97957 17.4998 9.11342 17.5 9.24902V13.7498C17.4999 14.1639 17.1634 14.4993 16.7493 14.4993H15.8679C15.7571 14.8124 15.58 15.1009 15.3406 15.3403C14.9187 15.7622 14.3467 15.9994 13.75 15.9995C13.1533 15.9994 12.5801 15.7622 12.1582 15.3403C11.9191 15.101 11.7426 14.8123 11.6321 14.4993H8.36792C8.25706 14.8124 8.07995 15.1009 7.84058 15.3403C7.41868 15.7622 6.84665 15.9994 6.25 15.9995C5.65335 15.9994 5.0801 15.7622 4.6582 15.3403C4.41909 15.101 4.24261 14.8123 4.13208 14.4993H3.24951C2.8356 14.499 2.50013 14.1637 2.5 13.7498V5.49902C2.50025 5.10155 2.65838 4.72053 2.93945 4.43945C3.22053 4.15838 3.60155 4.00026 3.99902 4H10.7495ZM6.25 12.999C6.05123 12.9991 5.85958 13.0782 5.71899 13.2188C5.57845 13.3593 5.49939 13.551 5.49927 13.7498C5.49933 13.9482 5.57885 14.139 5.71899 14.2795C5.85959 14.4201 6.05118 14.4992 6.25 14.4993C6.44882 14.4992 6.63919 14.4201 6.77979 14.2795C6.92031 14.139 6.99945 13.9485 6.99951 13.7498C6.99939 13.551 6.92033 13.3593 6.77979 13.2188C6.63926 13.0786 6.44848 12.9991 6.25 12.999ZM13.75 12.999C13.5512 12.9991 13.3596 13.0782 13.219 13.2188C13.0785 13.3593 12.9994 13.551 12.9993 13.7498C12.9993 13.9482 13.0789 14.139 13.219 14.2795C13.3596 14.4201 13.5512 14.4992 13.75 14.4993C13.9488 14.4992 14.1392 14.4201 14.2798 14.2795C14.4203 14.139 14.4994 13.9485 14.4995 13.7498C14.4994 13.551 14.4203 13.3593 14.2798 13.2188C14.1393 13.0786 13.9485 12.9991 13.75 12.999ZM11.499 12.999H11.6321C11.7427 12.6861 11.9191 12.397 12.1582 12.158C12.5801 11.7361 13.1534 11.5001 13.75 11.5C14.3463 11.5001 14.9187 11.7365 15.3406 12.158C15.5797 12.397 15.757 12.6861 15.8679 12.999H15.9998V9.99976H11.499V12.999ZM3.99902 12.999H4.13208C4.24266 12.6861 4.41912 12.397 4.6582 12.158C5.08009 11.7361 5.6534 11.5001 6.25 11.5C6.84631 11.5001 7.41875 11.7365 7.84058 12.158C8.07966 12.397 8.257 12.6861 8.36792 12.999H10V5.49902H3.99902V12.999ZM11.499 8.49951H15.4236L14.0747 6.24976H11.499V8.49951Z" fill="#F79009"/>
</svg>
