<svg width="16" height="16" viewBox="0 0 16 16" fill="none" xmlns="http://www.w3.org/2000/svg">
<path fill-rule="evenodd" clip-rule="evenodd" d="M8.59961 3.2002C8.93085 3.2002 9.19901 3.46861 9.19922 3.7998H11.5996C11.8101 3.7998 12.0058 3.91045 12.1143 4.09082L13.9141 7.09082C13.9699 7.18385 13.9999 7.29093 14 7.39941V11C13.9999 11.3313 13.7307 11.5996 13.3994 11.5996H12.6943C12.6056 11.8501 12.464 12.0809 12.2725 12.2725C11.9349 12.61 11.4773 12.7998 11 12.7998C10.5227 12.7998 10.0641 12.61 9.72656 12.2725C9.53527 12.081 9.39408 11.8501 9.30566 11.5996H6.69434C6.60565 11.8501 6.46396 12.0809 6.27246 12.2725C5.93494 12.61 5.47732 12.7998 5 12.7998C4.52268 12.7998 4.06408 12.61 3.72656 12.2725C3.53527 12.081 3.39408 11.8501 3.30566 11.5996H2.59961C2.26848 11.5994 2.00011 11.3312 2 11V4.39941C2.0002 4.08143 2.1267 3.77662 2.35156 3.55176C2.57642 3.3269 2.88124 3.2004 3.19922 3.2002H8.59961ZM5 10.3994C4.84098 10.3995 4.68766 10.4628 4.5752 10.5752C4.46276 10.6876 4.39951 10.841 4.39941 11C4.39947 11.1588 4.46308 11.3114 4.5752 11.4238C4.68767 11.5363 4.84094 11.5996 5 11.5996C5.15906 11.5996 5.31135 11.5363 5.42383 11.4238C5.53625 11.3114 5.59956 11.159 5.59961 11C5.59951 10.841 5.53626 10.6876 5.42383 10.5752C5.31141 10.4631 5.15879 10.3995 5 10.3994ZM11 10.3994C10.841 10.3995 10.6877 10.4628 10.5752 10.5752C10.4628 10.6876 10.3995 10.841 10.3994 11C10.3995 11.1588 10.4631 11.3114 10.5752 11.4238C10.6877 11.5363 10.8409 11.5996 11 11.5996C11.1591 11.5996 11.3114 11.5363 11.4238 11.4238C11.5362 11.3114 11.5996 11.159 11.5996 11C11.5995 10.841 11.5363 10.6876 11.4238 10.5752C11.3114 10.4631 11.1588 10.3995 11 10.3994ZM9.19922 10.3994H9.30566C9.39413 10.1491 9.53529 9.91783 9.72656 9.72656C10.0641 9.3891 10.5227 9.20025 11 9.2002C11.477 9.20025 11.935 9.38941 12.2725 9.72656C12.4637 9.91783 12.6056 10.1491 12.6943 10.3994H12.7998V8H9.19922V10.3994ZM3.19922 10.3994H3.30566C3.39413 10.1491 3.53529 9.91783 3.72656 9.72656C4.06407 9.3891 4.52272 9.20025 5 9.2002C5.47705 9.20025 5.935 9.38941 6.27246 9.72656C6.46373 9.91783 6.6056 10.1491 6.69434 10.3994H8V4.39941H3.19922V10.3994ZM9.19922 6.7998H12.3389L11.2598 5H9.19922V6.7998Z" fill="#0A0D12"/>
</svg>
