<svg width="20" height="20" viewBox="0 0 20 20" fill="none" xmlns="http://www.w3.org/2000/svg">
<path d="M11.7495 11.5022C12.7438 11.5022 13.698 11.8969 14.4011 12.6C15.1042 13.3031 15.4989 14.2573 15.4989 15.2516V16.7516C15.4989 17.1649 15.1638 17.5 14.7506 17.5C14.3373 17.5 14.0022 17.1649 14.0022 16.7516V15.2516C14.0022 14.6543 13.7653 14.0807 13.3429 13.6582C12.9204 13.2358 12.3468 12.9989 11.7495 12.9989H8.74945C8.15207 12.9989 7.57846 13.2358 7.15604 13.6582C6.73363 14.0807 6.4967 14.6543 6.4967 15.2516V16.7516C6.4967 17.1649 6.16163 17.5 5.74835 17.5C5.33507 17.5 5 17.1649 5 16.7516V15.2516C5 14.2573 5.39472 13.3031 6.0978 12.6C6.80088 11.8969 7.75514 11.5022 8.74945 11.5022H11.7495Z" fill="#89A2B5"/>
<path fill-rule="evenodd" clip-rule="evenodd" d="M10.2495 2.5C11.2435 2.5001 12.197 2.89492 12.9 3.5978C13.6031 4.30088 13.9978 5.25514 13.9978 6.24945C13.9977 7.24363 13.603 8.19701 12.9 8.9C12.197 9.603 11.2436 9.99771 10.2495 9.9978C9.25514 9.9978 8.30088 9.60308 7.5978 8.9C6.89492 8.19702 6.5001 7.24354 6.5 6.24945C6.5 5.25514 6.89472 4.30088 7.5978 3.5978C8.30088 2.89472 9.25514 2.5 10.2495 2.5ZM10.2495 3.9967C9.65207 3.9967 9.07846 4.23363 8.65604 4.65604C8.23363 5.07846 7.9967 5.65207 7.9967 6.24945C7.9968 6.84661 8.23383 7.41945 8.65604 7.84176C9.07846 8.26417 9.65207 8.5011 10.2495 8.5011C10.8467 8.501 11.4194 8.26408 11.8418 7.84176C12.2641 7.41943 12.501 6.8467 12.5011 6.24945C12.5011 5.65207 12.2642 5.07846 11.8418 4.65604C11.4195 4.23383 10.8466 3.9968 10.2495 3.9967Z" fill="#89A2B5"/>
</svg>
